<?xml version="1.0" encoding="UTF-8"?>
<svg width="270px" height="75px" viewBox="0 0 270 75" version="1.1" xmlns="http://www.w3.org/2000/svg" xmlns:xlink="http://www.w3.org/1999/xlink">
    <!-- Generator: Sketch 51 (57462) - http://www.bohemiancoding.com/sketch -->
    <title>Group 21</title>
    <desc>Created with Sketch.</desc>
    <defs></defs>
    <g id="Page-1" stroke="none" stroke-width="1" fill="none" fill-rule="evenodd">
        <g id="Desktop-HD-Copy-15" transform="translate(-20.000000, -8.000000)">
            <rect fill="#FFFFFF" x="0" y="0" width="1440" height="1024"></rect>
            <g id="Group-21" transform="translate(20.000000, 8.000000)">
                <path d="M41.934075,10.573275 L41.706075,6.618525 L40.337325,6.639525 L40.168575,10.522275 C40.757325,10.539525 41.346075,10.556025 41.934075,10.573275" id="Fill-4" fill="#000000"></path>
                <polygon id="Fill-6" fill="#000000" points="42.7317 20.095425 39.38445 20.095425 40.3572 6.132675 41.68995 6.132675"></polygon>
                <path d="M36.4725,21.67725 L45.88125,21.67725 L45.88125,20.65425 L36.4725,20.65425 L36.4725,21.67725 Z M46.41525,21.72825 L45.89475,20.22975 L46.10925,20.22975 L46.10925,18.5715 L43.839,18.5715 L38.172,18.5715 L36.1395,18.5715 L36.1395,20.22975 L36.28575,20.22975 L35.943,21.72825 L34.32225,21.72825 L34.32225,25.00725 L34.40025,25.00725 L35.0115,26.1075 L35.199,26.1075 C34.866,26.349 34.66875,26.733 34.66875,27.171 L34.66875,27.40875 C34.66875,28.13925 35.25,28.72425 35.943,28.72425 L46.21425,28.72425 C46.91775,28.72425 47.502,28.13925 47.502,27.40875 L47.502,27.171 C47.502,26.733 47.27475,26.349 46.95825,26.094 L47.5665,25.00725 L47.64825,25.00725 L47.64825,21.72825 L46.41525,21.72825 Z" id="Fill-8" fill="#000000"></path>
                <polygon id="Fill-10" fill="#000000" points="32.4924 29.820525 23.92365 73.717275 8.8899 73.717275 0.6969 29.820525 11.22015 29.820525 16.70715 65.600025 22.3449 29.820525"></polygon>
                <polygon id="Fill-11" fill="#000000" points="46.246575 73.7175 35.723325 73.7175 37.724325 29.82 44.294325 29.82"></polygon>
                <path d="M77.515125,39.216075 L77.515125,44.553075 L67.292625,44.553075 L67.292625,39.592575 C67.292625,35.683575 66.089625,33.729075 63.684375,33.729075 C61.579875,33.729075 60.527625,34.807575 60.527625,36.961575 L60.527625,39.516825 C60.527625,42.123075 62.004375,44.678325 64.962375,47.184075 L72.930375,53.347575 C75.785625,55.853325 77.214375,58.233075 77.214375,60.488325 L77.214375,66.501825 C77.214375,72.114825 72.704625,74.919825 63.684375,74.919825 C54.514125,74.919825 49.929375,71.287575 49.929375,64.021575 L49.929375,58.158075 L60.677625,58.158075 L60.677625,66.727575 C60.677625,68.531325 61.679625,69.433575 63.684375,69.433575 C65.989125,69.433575 67.141875,68.181075 67.141875,65.674575 L67.141875,62.217075 C67.141875,60.563325 65.613375,58.509075 62.557125,56.053575 L54.589875,49.815075 C51.733125,47.210325 50.305125,44.654325 50.305125,42.147825 L50.305125,36.886575 C50.305125,31.323825 54.764625,28.542825 63.684375,28.542825 C68.194125,28.542825 71.500875,29.219325 73.606125,30.572325 C76.211625,32.226075 77.515125,35.107575 77.515125,39.216075" id="Fill-12" fill="#000000"></path>
                <polygon id="Fill-13" fill="#000000" points="81.273 73.7175 91.7955 73.7175 91.7955 29.82 81.273 29.82"></polygon>
                <path d="M112.314675,66.501675 L112.314675,36.585675 C112.314675,34.781925 111.299925,33.879675 109.270425,33.879675 C107.240925,33.879675 106.226175,34.781925 106.226175,36.585675 L106.226175,66.501675 C106.226175,68.356425 107.240925,69.282675 109.270425,69.282675 C111.299925,69.282675 112.314675,68.356425 112.314675,66.501675 Z M122.837925,66.275925 C122.837925,69.233925 121.234425,71.487675 118.027425,73.041675 C115.571175,74.293425 112.664925,74.920425 109.307925,74.920425 C105.950925,74.920425 103.043175,74.293425 100.588425,73.041675 C97.330425,71.437425 95.703675,69.182925 95.703675,66.275925 L95.703675,37.110675 C95.703675,34.205925 97.330425,31.950675 100.588425,30.346425 C103.043175,29.143425 105.950925,28.542675 109.307925,28.542675 C112.565175,28.542675 115.471425,29.143425 118.027425,30.346425 C121.234425,31.900425 122.837925,34.154925 122.837925,37.110675 L122.837925,66.275925 Z" id="Fill-14" fill="#000000"></path>
                <path d="M153.88035,73.7175 L143.35785,73.7175 L143.35785,36.95625 C143.35785,35.10525 142.34235,34.1805 140.31285,34.1805 C138.28335,34.1805 137.26935,35.10525 137.26935,36.95625 L137.26935,73.7175 L126.74535,73.7175 L126.74535,37.1115 C126.74535,34.155 128.34885,31.9005 131.55585,30.3465 C134.1126,29.14425 137.0436,28.54275 140.3511,28.54275 C143.60835,28.54275 146.5146,29.14425 149.0706,30.3465 C152.2761,31.9005 153.88035,34.155 153.88035,37.1115 L153.88035,73.7175 Z" id="Fill-15" fill="#000000"></path>
                <polygon id="Fill-16" fill="#2A6DDF" points="181.165275 73.7175 157.637775 73.7175 157.637775 68.607 169.965525 35.45775 157.938525 35.45775 157.938525 29.82 181.165275 29.82 181.165275 35.00625 168.988275 68.07975 181.165275 68.07975"></polygon>
                <polygon id="Fill-17" fill="#2A6DDF" points="208.22385 73.7175 184.9971 73.7175 184.9971 29.895 208.22385 29.895 208.22385 35.8335 195.52035 35.8335 195.52035 46.88325 207.9231 46.88325 207.9231 52.671 195.52035 52.671 195.52035 67.704 208.22385 67.704"></polygon>
                <path d="M228.81885,45.004425 L228.81885,39.441675 C228.81885,35.784675 227.6901,33.954675 225.4356,33.954675 C223.37985,33.954675 222.3546,34.832175 222.3546,36.585675 L222.3546,49.514175 L222.42885,49.514175 C226.68735,49.514175 228.81885,48.011175 228.81885,45.004425 Z M238.81485,73.642425 L228.29235,73.642425 L228.29235,58.157925 C228.29235,55.703925 226.56285,54.475425 223.1061,54.475425 L222.3546,54.475425 L222.3546,73.642425 L211.83135,73.642425 L211.83135,37.111425 C211.83135,34.154925 213.4386,31.900425 216.65385,30.346425 C219.2166,29.144175 222.13185,28.542675 225.3981,28.542675 C228.6651,28.542675 231.55335,29.144175 234.0666,30.346425 C237.23235,31.950675 238.81485,34.206675 238.81485,37.111425 L238.81485,45.004425 C238.81485,49.213425 236.14035,51.494175 230.7906,51.844425 C236.14035,52.295175 238.81485,54.400425 238.81485,58.157925 L238.81485,73.642425 Z" id="Fill-18" fill="#2A6DDF"></path>
                <path d="M259.185075,66.501675 L259.185075,36.585675 C259.185075,34.781925 258.169575,33.879675 256.140075,33.879675 C254.110575,33.879675 253.096575,34.781925 253.096575,36.585675 L253.096575,66.501675 C253.096575,68.356425 254.110575,69.282675 256.140075,69.282675 C258.169575,69.282675 259.185075,68.356425 259.185075,66.501675 Z M269.707575,66.275925 C269.707575,69.233925 268.104075,71.487675 264.897075,73.041675 C262.442325,74.293425 259.535325,74.920425 256.177575,74.920425 C252.820575,74.920425 249.913575,74.293425 247.458075,73.041675 C244.200825,71.437425 242.573325,69.182925 242.573325,66.275925 L242.573325,37.110675 C242.573325,34.205925 244.200825,31.950675 247.458075,30.346425 C249.913575,29.143425 252.820575,28.542675 256.177575,28.542675 C259.435575,28.542675 262.341825,29.143425 264.897075,30.346425 C268.104075,31.900425 269.707575,34.154925 269.707575,37.110675 L269.707575,66.275925 Z" id="Fill-19" fill="#2A6DDF"></path>
                <path d="M43.4553,13.203375 C43.4553,13.640625 43.09155,13.997625 42.6453,13.997625 L39.4323,13.997625 C38.9868,13.997625 38.62305,13.640625 38.62305,13.203375 C38.62305,12.766125 38.9868,12.408375 39.4323,12.408375 L42.6453,12.408375 C43.09155,12.408375 43.4553,12.766125 43.4553,13.203375" id="Fill-20" fill="#000000"></path>
                <polygon id="Fill-3" fill="#000000" points="41.683575 7.2891 41.405325 7.2891 41.405325 3.6681 41.298825 3.6681 41.298825 0.0006 40.728825 0.0006 40.728825 3.6681 40.623825 3.6681 40.623825 7.2891 40.344825 7.2891"></polygon>
            </g>
        </g>
    </g>
</svg>